# AST/ASF file generated using VICON BodyLanguage
# -----------------------------------------------
:version 1.10
:name VICON
:units
  mass 1.0
  length 0.45
  angle deg
:documentation
   .ast/.asf automatically generated from VICON data using
   VICON BodyBuilder and BodyLanguage model FoxedUp or BRILLIANT.MOD
:root
   order TX TY TZ RX RY RZ
   axis XYZ
   position 0 0 0  
   orientation 0 0 0 
:bonedata
  begin
     id 1 
     name lhipjoint
     direction 0.734343 -0.627749 0.258209 
     length 2.5437 
     axis 0 0 0  XYZ
  end
  begin
     id 2 
     name lfemur
     direction 0.34202 -0.939693 0  
     length 6.7391  
     axis 0 0 20  XYZ
    dof rx ry rz
    limits (-160.0 20.0)
           (-70.0 70.0)
           (-60.0 70.0)
  end
  begin
     id 3 
     name ltibia
     direction 0.34202 -0.939693 0   
     length 7.21536   
     axis 0 0 20   XYZ
    dof rx
    limits (-10.0 170.0)
  end
  begin
     id 4 
     name lfoot
     direction 0.0489572 -0.134509 0.989702   
     length 1.61313   
     axis -90 7.62852e-016 20   XYZ
    dof rx rz
    limits (-45.0 90.0)
           (-70.0 20.0)
  end
  begin
     id 5 
     name ltoes
     direction 1.53451e-011 -4.21692e-011 1   
     length 0.823104   
     axis -90 7.62852e-016 20   XYZ
    dof rx
    limits (-90.0 20.0)
  end
  begin
     id 6 
     name rhipjoint
     direction -0.746398 -0.615468 0.253157   
     length 2.59446  
     axis 0 0 0  XYZ 
  end
  begin
     id 7 
     name rfemur
     direction -0.34202 -0.939693 0   
     length 6.7075   
     axis 0 0 -20   XYZ
    dof rx ry rz
    limits (-160.0 20.0)
           (-70.0 70.0)
           (-70.0 60.0)
  end
  begin
     id 8 
     name rtibia
     direction -0.34202 -0.939693 0   
     length 7.27262   
     axis 0 0 -20   XYZ
    dof rx
    limits (-10.0 170.0)
 end
 begin
     id 9 
     name rfoot
     direction -0.0455203 -0.125066 0.991104   
     length 1.91095  
     axis -90 -7.62852e-016 -20   XYZ
    dof rx rz
    limits (-45.0 90.0)
           (-20.0 70.0)
  end
  begin
     id 10 
     name rtoes
     direction -1.53601e-011 -4.21913e-011 1   
     length 0.969037   
     axis -90 -7.62852e-016 -20   XYZ
    dof rx
    limits (-90.0 20.0)
  end
  begin
     id 11 
     name lowerback
     direction 0.0181546 0.999122 -0.0377542   
     length 1.99916   
     axis 0 0 0   XYZ
    dof rx ry rz
    limits (-20.0 45.0)
           (-30.0 30.0)
           (-30.0 30.0)
  end
  begin
     id 12 
     name upperback
     direction 0.0203486 0.99589 0.0882534   
     length 1.951   
     axis 0 0 0   XYZ
    dof rx ry rz
    limits (-20.0 45.0)
           (-30.0 30.0)
           (-30.0 30.0)
  end
  begin
     id 13 
     name thorax
     direction 0.0131685 0.994241 0.106355   
     length 1.97461   
     axis 0 0 0   XYZ
    dof rx ry rz
    limits (-20.0 45.0)
           (-30.0 30.0)
           (-30.0 30.0)
  end
  begin
     id 14 
     name lowerneck
     direction -0.0281395 0.999325 0.023617   
     length 1.7959   
     axis 0 0 0   XYZ
    dof rx ry rz
    limits (-20.0 45.0)
           (-30.0 30.0)
           (-30.0 30.0)
  end
  begin
     id 15 
     name upperneck
     direction 0.0288721 0.991984 -0.123019   
     length 1.79917   
     axis 0 0 0   XYZ
    dof rx ry rz
    limits (-20.0 45.0)
           (-30.0 30.0)
           (-30.0 30.0)
  end
  begin
     id 16
     name head
     direction 0.0133797 0.998944 -0.0439492  
     length 1.80902  
     axis 0 0 0   XYZ
    dof rx ry rz
    limits (-20.0 45.0)
           (-30.0 30.0)
           (-30.0 30.0)
  end
  begin
     id 17 
     name lclavicle
     direction 0.919195 0.377107 0.113449  
     length 3.17815  
     axis 0 0 0   XYZ
    dof ry rz
    limits (-20.0 10.0)
           (0.0 20.0)
  end
  begin
     id 18 
     name lhumerus
     direction 1 -4.48959e-011 2.13129e-027   
     length 4.84137   
     axis 180 -30 -90   XYZ
    dof rx ry rz
    limits (-60.0 90.0)
           (-90.0 90.0)
           (-90.0 90.0)
  end
  begin
     id 19
     name lradius
     direction 1 -4.48957e-011 -6.30627e-028   
     length 3.2452   
     axis 180 -30 -90   XYZ
    dof rx
    limits (-10.0 170.0)
  end
  begin
     id 20
     name lwrist
     direction 1 -4.4901e-011 9.13299e-027   
     length 1.6226   
     axis -6.84618e-015 90 90   XYZ
    dof ry
    limits (-180.0 0.0)
 end
  begin
     id 21 
     name lhand
     direction 1 -4.48816e-011 1.82293e-026   
     length 0.521221   
     axis -1.16502e-014 90 90   XYZ
    dof rx rz
    limits (-90.0 90.0)
           (-45.0 45.0)
  end
  begin
     id 22 
     name lfingers
     direction 1 -4.49108e-011 3.65687e-026   
     length 0.420221   
     axis -2.33008e-014 90 90   XYZ
    dof rx
    limits (0.0 90.0)
  end
  begin
     id 23
     name lthumb
     direction 0.707107 -6.34943e-011 0.707107   
     length 0.603356   
     axis -90 45 5.69224e-014   XYZ
    dof rx rz
    limits (-45.0 45.0)
           (-45.0 45.0)
  end
  begin
     id 24 
     name rclavicle
     direction -0.90847 0.38596 0.160368   
     length 3.12973  
     axis 0 0 0   XYZ 
    dof ry rz
    limits (-10.0 20.0)
           (-20.0 0.0)
  end
  begin
     id 25 
     name rhumerus
     direction -1 -4.48974e-011 4.47268e-028  
     length 4.72284   
     axis 180 30 90   XYZ
    dof rx ry rz
    limits (-90.0 60.0)
           (-90.0 90.0)
           (-90.0 90.0)
  end
  begin
     id 26 
     name rradius
     direction -1 -4.48969e-011 3.43203e-027   
     length 3.23459   
     axis 180 30 90   XYZ
    dof rx
    limits (-10.0 170.0)
  end
  begin
     id 27 
     name rwrist
     direction -1 -4.48969e-011 9.12911e-027   
     length 1.6173   
     axis -6.84618e-015 -90 -90   XYZ
    dof ry
    limits (-180.0 0.0)
  end
  begin
     id 28
     name rhand
     direction -1 -4.49194e-011 1.83006e-026   
     length 0.307416   
     axis -1.16502e-014 -90 -90   XYZ
    dof rx rz
    limits (-90.0 90.0)
           (-45.0 45.0)
  end
  begin
     id 29
     name rfingers
     direction -1 -4.48423e-011 3.63103e-026   
     length 0.247847   
     axis -2.33008e-014 -90 -90   XYZ
    dof rx
    limits (0.0 90.0)
  end
  begin
     id 30
     name rthumb
     direction -0.707107 -6.34802e-011 0.707107   
     length 0.35586   
     axis -90 -45 -5.69224e-014   XYZ
    dof rx rz
    limits (-45.0 45.0)
           (-45.0 45.0)
  end
:hierarchy
  begin
    root lhipjoint rhipjoint lowerback
    lhipjoint lfemur
    lfemur ltibia
    ltibia lfoot
    lfoot ltoes
    rhipjoint rfemur
    rfemur rtibia
    rtibia rfoot
    rfoot rtoes
    lowerback upperback
    upperback thorax
    thorax lowerneck lclavicle rclavicle
    lowerneck upperneck
    upperneck head
    lclavicle lhumerus
    lhumerus lradius
    lradius lwrist
    lwrist lhand lthumb
    lhand lfingers
    rclavicle rhumerus
    rhumerus rradius
    rradius rwrist
    rwrist rhand rthumb
    rhand rfingers
  end

#!OML:ASF H:\Terrain\Patient Classification 1\Animal1\Tuesday\Animal1.ASF
:FULLY-SPECIFIED
:DEGREES
255
root 9.496 15.8341 -2.46177 -1.232 73.2839 -11.7045
lowerback 15.0182 -0.833188 1.33774
upperback -6.6421 -1.00765 -1.427
thorax -16.1121 -0.689184 -2.10158
lowerneck -11.486 4.12272 -2.32896
upperneck -1.17124 5.75223 6.72821
head 1.33537 3.09909 2.84109
rclavicle -2.48481e-014 3.33958e-014
rhumerus -50.0838 -10.5838 -25.7515
rradius 16.8712
rwrist -11.7658
rhand -33.1284 25.8817
rfingers 7.12502
rthumb -6.33818 -4.00344
lclavicle -2.48481e-014 3.33958e-014
lhumerus -44.4015 12.6515 25.1697
lradius 21.9972
lwrist -39.6692
lhand -6.45039 68.5088
lfingers 7.12502
lthumb -160.601 82.4389
rfemur -35.4285 6.69322 25.413
rtibia 47.6254
rfoot -12.227 -23.9235
rtoes -0.997979
lfemur -50.8116 4.38043 -10.2433
ltibia 84.6033
lfoot -8.81576 -2.67979
ltoes 20.9924
256
root 9.50051 15.8263 -2.431 -1.27551 73.2976 -11.8163
lowerback 15.3606 -0.827935 1.50145
upperback -6.72003 -0.974414 -1.51478
thorax -16.4315 -0.702171 -2.30555
lowerneck -11.42 4.27687 -2.51992
upperneck -1.14943 5.97865 6.84542
head 1.31112 3.21417 2.92181
rclavicle -2.09718e-014 -1.74931e-014
rhumerus -51.0045 -12.8791 -28.6521
rradius 16.4284
rwrist -10.2387
rhand -32.7965 26.0519
rfingers 7.12502
rthumb -6.01778 -3.84264
lclavicle -2.09718e-014 -1.74931e-014
lhumerus -46.3767 13.3881 27.5264
lradius 21.9387
lwrist -40.162
lhand -6.37968 67.9497
lfingers 7.12502
lthumb -160.533 83.0049
rfemur -35.4818 6.67587 25.5891
rtibia 47.7871
rfoot -12.4651 -23.9465
rtoes -0.590748
lfemur -51.2059 5.20116 -10.4302
ltibia 84.2443
lfoot -9.21231 -1.8419
ltoes 20.5086
257
root 9.50701 15.8223 -2.40198 -1.00389 73.3733 -11.7626
lowerback 15.5616 -0.785764 1.60628
upperback -6.86778 -0.903634 -1.60828
thorax -16.7444 -0.693169 -2.49612
lowerneck -11.1673 4.33294 -2.79802
upperneck -1.3898 6.09972 7.0277
head 1.16914 3.27382 3.02143
rclavicle 3.75206e-014 7.95139e-015
rhumerus -51.8158 -14.4415 -32.0972
rradius 16.1266
rwrist -9.86054
rhand -33.0505 26.3579
rfingers 7.12502
rthumb -6.26297 -3.52955
lclavicle 3.75206e-014 7.95139e-015
lhumerus -48.2069 14.2727 29.6935
lradius 21.7211
lwrist -41.0866
lhand -5.94418 67.4564
lfingers 7.12502
lthumb -160.114 83.541
rfemur -35.7156 6.67895 25.658
rtibia 47.9659
rfoot -12.3344 -23.9931
rtoes -1.82938
lfemur -51.7689 5.94868 -10.7292
ltibia 83.7636
lfoot -9.33087 -0.237585
ltoes 17.1372
258
root 9.51673 15.8242 -2.37104 -0.165794 73.5569 -11.0254
lowerback 15.7643 -0.735983 1.40365
upperback -6.95278 -0.898191 -1.7347
thorax -16.9788 -0.681427 -2.5307
lowerneck -11.0311 4.40736 -2.81239
upperneck -1.56495 6.21152 6.95349
head 1.0831 3.32431 2.99216
rclavicle -2.98177e-016 3.97569e-015
rhumerus -52.499 -16.2428 -35.2121
rradius 15.7733
rwrist -9.24906
rhand -33.2806 26.5178
rfingers 7.12502
rthumb -6.48508 -3.36292
lclavicle -2.98177e-016 3.97569e-015
lhumerus -50.0127 15.5684 31.4011
lradius 21.4743
lwrist -42.4395
lhand -5.25789 66.6796
lfingers 7.12502
lthumb -159.454 84.3876
rfemur -35.9027 6.4965 25.5344
rtibia 48.1621
rfoot -11.9975 -24.0865
rtoes -3.58466
lfemur -52.1533 6.42771 -11.1725
ltibia 83.112
lfoot -9.50336 0.721402
ltoes 16.0314
259
root 9.52604 15.8207 -2.34214 0.73999 73.7756 -10.0965
lowerback 16.0697 -0.689786 1.06876
upperback -7.03302 -0.924702 -1.82451
thorax -17.2724 -0.6666 -2.43907
lowerneck -10.957 4.52423 -2.75667
upperneck -1.4941 6.35504 6.80918
head 1.09055 3.39061 2.93689
rclavicle -7.38982e-014 -2.38542e-014
rhumerus -52.9592 -17.9108 -38.138
rradius 15.1721
rwrist -8.30954
rhand -33.1439 26.8688
rfingers 7.12502
rthumb -6.35318 -3.01596
lclavicle -7.38982e-014 -2.38542e-014
lhumerus -52.0589 17.2165 32.5629
lradius 21.2965
lwrist -43.9612
lhand -4.84232 65.8631
lfingers 7.12502
lthumb -159.055 85.2477
rfemur -35.9956 6.22724 25.3621
rtibia 48.3791
rfoot -14.1881 -23.6772
rtoes 2.62764
lfemur -52.4003 6.84707 -11.6533
ltibia 82.3611
lfoot -9.67318 1.54925
ltoes 15.8195
